<svg width="24" height="24" viewBox="0 0 24 24" fill="none" xmlns="http://www.w3.org/2000/svg">
  <path d="M13 9.5H18V7.5H13V9.5ZM13 16.5H18V14.5H13V16.5ZM19 21H5C4.46957 21 3.96086 20.7893 3.58579 20.4142C3.21071 20.0391 3 19.5304 3 19V5C3 4.46957 3.21071 3.96086 3.58579 3.58579C3.96086 3.21071 4.46957 3 5 3H19C19.5304 3 20.0391 3.21071 20.4142 3.58579C20.7893 3.96086 21 4.46957 21 5V19C21 19.5304 20.7893 20.0391 20.4142 20.4142C20.0391 20.7893 19.5304 21 19 21ZM6 11H11V6H6V11ZM7 7H10V10H7V7ZM6 18H11V13H6V18ZM7 14H10V17H7V14Z" fill="{fill}"/>
</svg>
